<?xml version="1.0" encoding="UTF-8" standalone="no"?>
<!DOCTYPE svg PUBLIC "-//W3C//DTD SVG 1.1//EN"
 "http://www.w3.org/Graphics/SVG/1.1/DTD/svg11.dtd">
<!-- Generated by graphviz version 2.43.0 (0)
 -->
<!-- Title: %3 Pages: 1 -->
<svg width="1846pt" height="210pt"
 viewBox="0.00 0.00 1845.69 210.00" xmlns="http://www.w3.org/2000/svg" xmlns:xlink="http://www.w3.org/1999/xlink">
<g id="graph0" class="graph" transform="scale(1 1) rotate(0) translate(4 206)">
<title>%3</title>
<polygon fill="white" stroke="transparent" points="-4,4 -4,-206 1841.69,-206 1841.69,4 -4,4"/>
<!-- 139757483829776 -->
<g id="node1" class="node">
<title>139757483829776</title>
<polygon fill="none" stroke="black" points="1606.69,-54.5 1606.69,-90.5 1837.69,-90.5 1837.69,-54.5 1606.69,-54.5"/>
<text text-anchor="middle" x="1619.19" y="-68.8" font-family="Times,serif" font-size="14.00">o</text>
<polyline fill="none" stroke="black" points="1631.69,-54.5 1631.69,-90.5 "/>
<text text-anchor="middle" x="1682.69" y="-68.8" font-family="Times,serif" font-size="14.00">data 1.0000</text>
<polyline fill="none" stroke="black" points="1733.69,-54.5 1733.69,-90.5 "/>
<text text-anchor="middle" x="1785.69" y="-68.8" font-family="Times,serif" font-size="14.00">grad 1.0000</text>
</g>
<!-- 139757483829776tanh -->
<g id="node2" class="node">
<title>139757483829776tanh</title>
<ellipse fill="none" stroke="black" cx="1538.85" cy="-72.5" rx="31.7" ry="18"/>
<text text-anchor="middle" x="1538.85" y="-68.8" font-family="Times,serif" font-size="14.00">tanh</text>
</g>
<!-- 139757483829776tanh&#45;&gt;139757483829776 -->
<g id="edge1" class="edge">
<title>139757483829776tanh&#45;&gt;139757483829776</title>
<path fill="none" stroke="black" d="M1571.02,-72.5C1578.61,-72.5 1587.19,-72.5 1596.31,-72.5"/>
<polygon fill="black" stroke="black" points="1596.4,-76 1606.4,-72.5 1596.4,-69 1596.4,-76"/>
</g>
<!-- 139757483827232 -->
<g id="node3" class="node">
<title>139757483827232</title>
<polygon fill="none" stroke="black" points="375,-110.5 375,-146.5 648,-146.5 648,-110.5 375,-110.5"/>
<text text-anchor="middle" x="406" y="-124.8" font-family="Times,serif" font-size="14.00">w1*x1</text>
<polyline fill="none" stroke="black" points="437,-110.5 437,-146.5 "/>
<text text-anchor="middle" x="490.5" y="-124.8" font-family="Times,serif" font-size="14.00">data &#45;2.4000</text>
<polyline fill="none" stroke="black" points="544,-110.5 544,-146.5 "/>
<text text-anchor="middle" x="596" y="-124.8" font-family="Times,serif" font-size="14.00">grad 0.0218</text>
</g>
<!-- 139757483831984+ -->
<g id="node9" class="node">
<title>139757483831984+</title>
<ellipse fill="none" stroke="black" cx="711" cy="-100.5" rx="27" ry="18"/>
<text text-anchor="middle" x="711" y="-96.8" font-family="Times,serif" font-size="14.00">+</text>
</g>
<!-- 139757483827232&#45;&gt;139757483831984+ -->
<g id="edge13" class="edge">
<title>139757483827232&#45;&gt;139757483831984+</title>
<path fill="none" stroke="black" d="M639.53,-110.49C652.09,-108.71 663.99,-107.02 674.3,-105.56"/>
<polygon fill="black" stroke="black" points="675.03,-108.99 684.44,-104.12 674.05,-102.06 675.03,-108.99"/>
</g>
<!-- 139757483827232* -->
<g id="node4" class="node">
<title>139757483827232*</title>
<ellipse fill="none" stroke="black" cx="312" cy="-128.5" rx="27" ry="18"/>
<text text-anchor="middle" x="312" y="-124.8" font-family="Times,serif" font-size="14.00">*</text>
</g>
<!-- 139757483827232*&#45;&gt;139757483827232 -->
<g id="edge2" class="edge">
<title>139757483827232*&#45;&gt;139757483827232</title>
<path fill="none" stroke="black" d="M339.23,-128.5C346.7,-128.5 355.41,-128.5 364.87,-128.5"/>
<polygon fill="black" stroke="black" points="364.98,-132 374.98,-128.5 364.98,-125 364.98,-132"/>
</g>
<!-- 139757483831888 -->
<g id="node5" class="node">
<title>139757483831888</title>
<polygon fill="none" stroke="black" points="375,-55.5 375,-91.5 648,-91.5 648,-55.5 375,-55.5"/>
<text text-anchor="middle" x="406" y="-69.8" font-family="Times,serif" font-size="14.00">w2*x2</text>
<polyline fill="none" stroke="black" points="437,-55.5 437,-91.5 "/>
<text text-anchor="middle" x="490.5" y="-69.8" font-family="Times,serif" font-size="14.00">data &#45;0.7000</text>
<polyline fill="none" stroke="black" points="544,-55.5 544,-91.5 "/>
<text text-anchor="middle" x="596" y="-69.8" font-family="Times,serif" font-size="14.00">grad 0.0218</text>
</g>
<!-- 139757483831888&#45;&gt;139757483831984+ -->
<g id="edge14" class="edge">
<title>139757483831888&#45;&gt;139757483831984+</title>
<path fill="none" stroke="black" d="M644.24,-91.51C655.12,-93 665.4,-94.4 674.45,-95.64"/>
<polygon fill="black" stroke="black" points="674.11,-99.13 684.49,-97.01 675.05,-92.19 674.11,-99.13"/>
</g>
<!-- 139757483831888* -->
<g id="node6" class="node">
<title>139757483831888*</title>
<ellipse fill="none" stroke="black" cx="312" cy="-73.5" rx="27" ry="18"/>
<text text-anchor="middle" x="312" y="-69.8" font-family="Times,serif" font-size="14.00">*</text>
</g>
<!-- 139757483831888*&#45;&gt;139757483831888 -->
<g id="edge3" class="edge">
<title>139757483831888*&#45;&gt;139757483831888</title>
<path fill="none" stroke="black" d="M339.23,-73.5C346.7,-73.5 355.41,-73.5 364.87,-73.5"/>
<polygon fill="black" stroke="black" points="364.98,-77 374.98,-73.5 364.98,-70 364.98,-77"/>
</g>
<!-- 139757482031760 -->
<g id="node7" class="node">
<title>139757482031760</title>
<polygon fill="none" stroke="black" points="2.5,-165.5 2.5,-201.5 246.5,-201.5 246.5,-165.5 2.5,-165.5"/>
<text text-anchor="middle" x="19.5" y="-179.8" font-family="Times,serif" font-size="14.00">x1</text>
<polyline fill="none" stroke="black" points="36.5,-165.5 36.5,-201.5 "/>
<text text-anchor="middle" x="87.5" y="-179.8" font-family="Times,serif" font-size="14.00">data 0.8000</text>
<polyline fill="none" stroke="black" points="138.5,-165.5 138.5,-201.5 "/>
<text text-anchor="middle" x="192.5" y="-179.8" font-family="Times,serif" font-size="14.00">grad &#45;0.0654</text>
</g>
<!-- 139757482031760&#45;&gt;139757483827232* -->
<g id="edge7" class="edge">
<title>139757482031760&#45;&gt;139757483827232*</title>
<path fill="none" stroke="black" d="M218.13,-165.46C228.63,-162.77 239.1,-159.78 249,-156.5 259.71,-152.96 271.05,-148.16 281.07,-143.54"/>
<polygon fill="black" stroke="black" points="282.67,-146.66 290.2,-139.21 279.67,-140.33 282.67,-146.66"/>
</g>
<!-- 139757483831984 -->
<g id="node8" class="node">
<title>139757483831984</title>
<polygon fill="none" stroke="black" points="774,-82.5 774,-118.5 1113,-118.5 1113,-82.5 774,-82.5"/>
<text text-anchor="middle" x="838" y="-96.8" font-family="Times,serif" font-size="14.00">w1*x1 + w2*x2</text>
<polyline fill="none" stroke="black" points="902,-82.5 902,-118.5 "/>
<text text-anchor="middle" x="955.5" y="-96.8" font-family="Times,serif" font-size="14.00">data &#45;3.1000</text>
<polyline fill="none" stroke="black" points="1009,-82.5 1009,-118.5 "/>
<text text-anchor="middle" x="1061" y="-96.8" font-family="Times,serif" font-size="14.00">grad 0.0218</text>
</g>
<!-- 139757483823056+ -->
<g id="node15" class="node">
<title>139757483823056+</title>
<ellipse fill="none" stroke="black" cx="1176" cy="-72.5" rx="27" ry="18"/>
<text text-anchor="middle" x="1176" y="-68.8" font-family="Times,serif" font-size="14.00">+</text>
</g>
<!-- 139757483831984&#45;&gt;139757483823056+ -->
<g id="edge10" class="edge">
<title>139757483831984&#45;&gt;139757483823056+</title>
<path fill="none" stroke="black" d="M1092.76,-82.49C1109.86,-80.41 1125.9,-78.46 1139.2,-76.85"/>
<polygon fill="black" stroke="black" points="1139.74,-80.31 1149.24,-75.63 1138.89,-73.36 1139.74,-80.31"/>
</g>
<!-- 139757483831984+&#45;&gt;139757483831984 -->
<g id="edge4" class="edge">
<title>139757483831984+&#45;&gt;139757483831984</title>
<path fill="none" stroke="black" d="M738.44,-100.5C745.81,-100.5 754.42,-100.5 763.84,-100.5"/>
<polygon fill="black" stroke="black" points="763.94,-104 773.94,-100.5 763.94,-97 763.94,-104"/>
</g>
<!-- 139757481119936 -->
<g id="node10" class="node">
<title>139757481119936</title>
<polygon fill="none" stroke="black" points="2,-55.5 2,-91.5 247,-91.5 247,-55.5 2,-55.5"/>
<text text-anchor="middle" x="19" y="-69.8" font-family="Times,serif" font-size="14.00">x2</text>
<polyline fill="none" stroke="black" points="36,-55.5 36,-91.5 "/>
<text text-anchor="middle" x="89.5" y="-69.8" font-family="Times,serif" font-size="14.00">data &#45;0.7000</text>
<polyline fill="none" stroke="black" points="143,-55.5 143,-91.5 "/>
<text text-anchor="middle" x="195" y="-69.8" font-family="Times,serif" font-size="14.00">grad 0.0218</text>
</g>
<!-- 139757481119936&#45;&gt;139757483831888* -->
<g id="edge12" class="edge">
<title>139757481119936&#45;&gt;139757483831888*</title>
<path fill="none" stroke="black" d="M247.16,-73.5C257.05,-73.5 266.46,-73.5 274.86,-73.5"/>
<polygon fill="black" stroke="black" points="274.92,-77 284.92,-73.5 274.92,-70 274.92,-77"/>
</g>
<!-- 139757483821280 -->
<g id="node11" class="node">
<title>139757483821280</title>
<polygon fill="none" stroke="black" points="827.5,-27.5 827.5,-63.5 1059.5,-63.5 1059.5,-27.5 827.5,-27.5"/>
<text text-anchor="middle" x="840.5" y="-41.8" font-family="Times,serif" font-size="14.00">b</text>
<polyline fill="none" stroke="black" points="853.5,-27.5 853.5,-63.5 "/>
<text text-anchor="middle" x="904.5" y="-41.8" font-family="Times,serif" font-size="14.00">data 9.1100</text>
<polyline fill="none" stroke="black" points="955.5,-27.5 955.5,-63.5 "/>
<text text-anchor="middle" x="1007.5" y="-41.8" font-family="Times,serif" font-size="14.00">grad 0.0218</text>
</g>
<!-- 139757483821280&#45;&gt;139757483823056+ -->
<g id="edge8" class="edge">
<title>139757483821280&#45;&gt;139757483823056+</title>
<path fill="none" stroke="black" d="M1059.75,-59C1088.57,-62.38 1117.4,-65.75 1139.01,-68.28"/>
<polygon fill="black" stroke="black" points="1138.67,-71.77 1149.01,-69.46 1139.48,-64.82 1138.67,-71.77"/>
</g>
<!-- 139757481124112 -->
<g id="node12" class="node">
<title>139757481124112</title>
<polygon fill="none" stroke="black" points="0.5,-0.5 0.5,-36.5 248.5,-36.5 248.5,-0.5 0.5,-0.5"/>
<text text-anchor="middle" x="19.5" y="-14.8" font-family="Times,serif" font-size="14.00">w2</text>
<polyline fill="none" stroke="black" points="38.5,-0.5 38.5,-36.5 "/>
<text text-anchor="middle" x="89.5" y="-14.8" font-family="Times,serif" font-size="14.00">data 1.0000</text>
<polyline fill="none" stroke="black" points="140.5,-0.5 140.5,-36.5 "/>
<text text-anchor="middle" x="194.5" y="-14.8" font-family="Times,serif" font-size="14.00">grad &#45;0.0153</text>
</g>
<!-- 139757481124112&#45;&gt;139757483831888* -->
<g id="edge11" class="edge">
<title>139757481124112&#45;&gt;139757483831888*</title>
<path fill="none" stroke="black" d="M218.13,-36.54C228.63,-39.23 239.1,-42.22 249,-45.5 259.71,-49.04 271.05,-53.84 281.07,-58.46"/>
<polygon fill="black" stroke="black" points="279.67,-61.67 290.2,-62.79 282.67,-55.34 279.67,-61.67"/>
</g>
<!-- 139757482028976 -->
<g id="node13" class="node">
<title>139757482028976</title>
<polygon fill="none" stroke="black" points="0,-110.5 0,-146.5 249,-146.5 249,-110.5 0,-110.5"/>
<text text-anchor="middle" x="19" y="-124.8" font-family="Times,serif" font-size="14.00">w1</text>
<polyline fill="none" stroke="black" points="38,-110.5 38,-146.5 "/>
<text text-anchor="middle" x="91.5" y="-124.8" font-family="Times,serif" font-size="14.00">data &#45;3.0000</text>
<polyline fill="none" stroke="black" points="145,-110.5 145,-146.5 "/>
<text text-anchor="middle" x="197" y="-124.8" font-family="Times,serif" font-size="14.00">grad 0.0174</text>
</g>
<!-- 139757482028976&#45;&gt;139757483827232* -->
<g id="edge9" class="edge">
<title>139757482028976&#45;&gt;139757483827232*</title>
<path fill="none" stroke="black" d="M249.23,-128.5C258.37,-128.5 267.05,-128.5 274.87,-128.5"/>
<polygon fill="black" stroke="black" points="274.95,-132 284.95,-128.5 274.95,-125 274.95,-132"/>
</g>
<!-- 139757483823056 -->
<g id="node14" class="node">
<title>139757483823056</title>
<polygon fill="none" stroke="black" points="1239,-54.5 1239,-90.5 1471,-90.5 1471,-54.5 1239,-54.5"/>
<text text-anchor="middle" x="1252" y="-68.8" font-family="Times,serif" font-size="14.00">n</text>
<polyline fill="none" stroke="black" points="1265,-54.5 1265,-90.5 "/>
<text text-anchor="middle" x="1316" y="-68.8" font-family="Times,serif" font-size="14.00">data 6.0600</text>
<polyline fill="none" stroke="black" points="1367,-54.5 1367,-90.5 "/>
<text text-anchor="middle" x="1419" y="-68.8" font-family="Times,serif" font-size="14.00">grad 0.0218</text>
</g>
<!-- 139757483823056&#45;&gt;139757483829776tanh -->
<g id="edge6" class="edge">
<title>139757483823056&#45;&gt;139757483829776tanh</title>
<path fill="none" stroke="black" d="M1471.17,-72.5C1480.08,-72.5 1488.66,-72.5 1496.53,-72.5"/>
<polygon fill="black" stroke="black" points="1496.78,-76 1506.78,-72.5 1496.78,-69 1496.78,-76"/>
</g>
<!-- 139757483823056+&#45;&gt;139757483823056 -->
<g id="edge5" class="edge">
<title>139757483823056+&#45;&gt;139757483823056</title>
<path fill="none" stroke="black" d="M1203.12,-72.5C1210.53,-72.5 1219.14,-72.5 1228.4,-72.5"/>
<polygon fill="black" stroke="black" points="1228.69,-76 1238.69,-72.5 1228.69,-69 1228.69,-76"/>
</g>
</g>
</svg>
